# WaveFront *.obj file (generated by Autodesk ATF)

mtllib c26131da-a1b4-433f-a6b6-b1e78bcba28a.mtl

g Body2

v 115.000000 50.000000 15.000000
v 100.000000 50.000000 15.000000
v 100.000000 0.000000 15.000000
v 115.000000 0.000000 15.000000
v 100.000000 50.000000 -15.000000
v 100.000000 0.000000 -15.000000
v 115.000000 50.000000 -15.000000
v 115.000000 0.000000 -15.000000
vt 0.750000 2.500000 0.000000
vt -0.750000 2.500000 0.000000
vt 0.750000 -2.500000 0.000000
vt -0.750000 -2.500000 0.000000
vt 2.500000 1.500000 0.000000
vt -2.500000 1.500000 0.000000
vt 2.500000 -1.500000 0.000000
vt -2.500000 -1.500000 0.000000
vt 1.500000 0.000000 0.000000
vt -1.500000 0.000000 0.000000
vt 1.500000 -1.500000 0.000000
vt -1.500000 -1.500000 0.000000
vt 0.750000 3.750000 0.000000
vt -0.750000 3.750000 0.000000
vt 0.750000 -1.250000 0.000000
vt -0.750000 -1.250000 0.000000
vt 5.000000 1.500000 0.000000
vt 0.000000 1.500000 0.000000
vt 5.000000 -1.500000 0.000000
vt 0.000000 -1.500000 0.000000
vt 1.500000 1.500000 0.000000
vt 0.000000 1.500000 0.000000
vt 1.500000 -1.500000 0.000000
vt 0.000000 -1.500000 0.000000
vn 0.000000 0.000000 0.100000
vn 0.000000 0.000000 0.100000
vn 0.000000 0.000000 0.100000
vn 0.000000 0.000000 0.100000
vn -0.100000 0.000000 0.000000
vn -0.100000 0.000000 0.000000
vn -0.100000 0.000000 0.000000
vn -0.100000 0.000000 0.000000
vn 0.000000 0.100000 0.000000
vn 0.000000 0.100000 0.000000
vn 0.000000 0.100000 0.000000
vn 0.000000 0.100000 0.000000
vn 0.000000 0.000000 -0.100000
vn 0.000000 0.000000 -0.100000
vn 0.000000 0.000000 -0.100000
vn 0.000000 0.000000 -0.100000
vn 0.100000 0.000000 0.000000
vn 0.100000 0.000000 0.000000
vn 0.100000 0.000000 0.000000
vn 0.100000 0.000000 0.000000
vn 0.000000 -0.100000 0.000000
vn 0.000000 -0.100000 0.000000
vn 0.000000 -0.100000 0.000000
vn 0.000000 -0.100000 0.000000
usemtl Steel_-_Satin
f 1/1/1 2/2/2 4/3/3
f 4/3/3 2/2/2 3/4/4
f 3/5/5 2/6/6 6/7/7
f 6/7/7 2/6/6 5/8/8
f 1/9/9 7/10/10 2/11/11
f 2/11/11 7/10/10 5/12/12
f 5/13/13 7/14/14 6/15/15
f 6/15/15 7/14/14 8/16/16
f 1/17/17 4/18/18 7/19/19
f 7/19/19 4/18/18 8/20/20
f 4/21/21 3/22/22 8/23/23
f 8/23/23 3/22/22 6/24/24

g Body1

v 0.000000 50.000000 0.000000
v 0.000000 49.318065 -8.229730
v 0.000000 47.290862 -16.234973
v 0.000000 43.973688 -23.797370
v 0.000000 39.457025 -30.710636
v 0.000000 33.864079 -36.786196
v 0.000000 27.347408 -41.858324
v 0.000000 20.084771 -45.788666
v 0.000000 12.274274 -48.470013
v 0.000000 4.128967 -49.829225
v 0.000000 -4.128967 -49.829225
v 0.000000 -12.274274 -48.470013
v 0.000000 -20.084771 -45.788666
v 0.000000 -27.347408 -41.858324
v 0.000000 -33.864079 -36.786196
v 0.000000 -39.457025 -30.710636
v 0.000000 -43.973688 -23.797370
v 0.000000 -47.290862 -16.234973
v 0.000000 -49.318065 -8.229730
v 0.000000 -50.000000 0.000000
v 0.000000 -49.318065 8.229730
v 0.000000 -47.290862 16.234973
v 0.000000 -43.973688 23.797370
v 0.000000 -39.457025 30.710636
v 0.000000 -33.864079 36.786196
v 0.000000 -27.347408 41.858324
v 0.000000 -20.084771 45.788666
v 0.000000 -12.274274 48.470013
v 0.000000 -4.128967 49.829225
v 0.000000 4.128967 49.829225
v 0.000000 12.274274 48.470013
v 0.000000 20.084771 45.788666
v 0.000000 27.347408 41.858324
v 0.000000 33.864079 36.786196
v 0.000000 39.457025 30.710636
v 0.000000 43.973688 23.797370
v 0.000000 47.290862 16.234973
v 0.000000 49.318065 8.229730
v 100.000000 0.000000 -0.000000
vt 0.822973 -0.068193 0.000000
vt 0.000000 0.000000 0.000000
vt 4.185832 -7.734741 0.000000
vt -0.822973 -0.068193 0.000000
vt -1.623497 -0.270914 0.000000
vt -2.379737 -0.602631 0.000000
vt -3.071064 -1.054297 0.000000
vt -3.678620 -1.613592 0.000000
vt -4.185832 -2.265259 0.000000
vt -4.578867 -2.991523 0.000000
vt -4.847001 -3.772573 0.000000
vt -4.982922 -4.587103 0.000000
vt -4.982922 -5.412897 0.000000
vt 3.678620 -8.386408 0.000000
vt -4.847001 -6.227427 0.000000
vt -4.578867 -7.008477 0.000000
vt -4.185832 -7.734741 0.000000
vt -3.678620 -8.386408 0.000000
vt 3.071064 -8.945703 0.000000
vt -3.071064 -8.945703 0.000000
vt 2.379737 -9.397369 0.000000
vt -2.379737 -9.397369 0.000000
vt 1.623497 -9.729086 0.000000
vt -1.623497 -9.729086 0.000000
vt 0.822973 -9.931807 0.000000
vt -0.822973 -9.931807 0.000000
vt 0.000000 -10.000000 0.000000
vt 4.578867 -7.008477 0.000000
vt 4.185832 -2.265259 0.000000
vt 3.678620 -1.613592 0.000000
vt 3.071064 -1.054297 0.000000
vt 4.578867 -2.991523 0.000000
vt 4.847001 -6.227427 0.000000
vt 4.847001 -3.772573 0.000000
vt 4.982922 -5.412897 0.000000
vt 4.982922 -4.587103 0.000000
vt 2.379737 -0.602631 0.000000
vt 1.623497 -0.270914 0.000000
vt -0.000000 0.413367 0.000000
vt -11.180340 0.413367 0.000000
vt -0.000000 0.000000 0.000000
vt 0.000000 1.240102 0.000000
vt -11.180340 1.240102 0.000000
vt -0.000000 0.826735 0.000000
vt -0.000000 2.066837 0.000000
vt -11.180340 2.066837 0.000000
vt -0.000000 1.653470 0.000000
vt -0.000000 2.893572 0.000000
vt -11.180340 2.893572 0.000000
vt -0.000000 2.480205 0.000000
vt -0.000000 3.720307 0.000000
vt -11.180340 3.720307 0.000000
vt 0.000000 3.306940 0.000000
vt -0.000000 4.547042 0.000000
vt -11.180340 4.547042 0.000000
vt -0.000000 4.133675 0.000000
vt -0.000000 5.373777 0.000000
vt -11.180340 5.373777 0.000000
vt -0.000000 4.960409 0.000000
vt -0.000000 6.200512 0.000000
vt -11.180340 6.200512 0.000000
vt -0.000000 5.787144 0.000000
vt -0.000000 7.027247 0.000000
vt -11.180340 7.027247 0.000000
vt -0.000000 6.613879 0.000000
vt -0.000000 7.853982 0.000000
vt -11.180340 7.853982 0.000000
vt -0.000000 7.440614 0.000000
vt -0.000000 -7.027247 0.000000
vt -11.180340 -7.027247 0.000000
vt -0.000000 -7.440614 0.000000
vt -0.000000 -6.200512 0.000000
vt -11.180340 -6.200512 0.000000
vt -0.000000 -6.613879 0.000000
vt -0.000000 -5.373777 0.000000
vt -11.180340 -5.373777 0.000000
vt -0.000000 -5.787144 0.000000
vt -0.000000 -4.547042 0.000000
vt -11.180340 -4.547042 0.000000
vt -0.000000 -4.960409 0.000000
vt -0.000000 -3.720307 0.000000
vt -11.180340 -3.720307 0.000000
vt -0.000000 -4.133675 0.000000
vt -0.000000 -2.893572 0.000000
vt -11.180340 -2.893572 0.000000
vt -0.000000 -3.306940 0.000000
vt -0.000000 -2.480205 0.000000
vt -11.180340 -2.480205 0.000000
vt -0.000000 -1.653470 0.000000
vt -11.180340 -1.653470 0.000000
vt -0.000000 -2.066837 0.000000
vt -0.000000 -0.826735 0.000000
vt -11.180340 -0.826735 0.000000
vt -0.000000 -1.240102 0.000000
vt -11.180340 0.000000 0.000000
vt -0.000000 -0.413367 0.000000
vt -11.180340 -7.440614 0.000000
vt -0.000000 -7.853982 0.000000
vt -11.180340 7.440614 0.000000
vt -11.180340 6.613879 0.000000
vt -11.180340 5.787144 0.000000
vt -11.180340 4.960409 0.000000
vt -11.180340 4.133675 0.000000
vt -11.180340 3.306940 0.000000
vt -11.180340 2.480205 0.000000
vt -11.180340 1.653470 0.000000
vt -11.180340 0.826735 0.000000
vt -11.180340 -0.413367 0.000000
vt -11.180340 -1.240102 0.000000
vt -11.180340 -2.066837 0.000000
vt -11.180340 -3.306940 0.000000
vt -11.180340 -4.133675 0.000000
vt -11.180340 -4.960409 0.000000
vt -11.180340 -5.787144 0.000000
vt -11.180340 -6.613879 0.000000
vn -0.100000 0.000000 0.000000
vn -0.100000 0.000000 0.000000
vn -0.100000 0.000000 0.000000
vn -0.100000 0.000000 0.000000
vn -0.100000 0.000000 0.000000
vn -0.100000 0.000000 0.000000
vn -0.100000 0.000000 0.000000
vn -0.100000 0.000000 0.000000
vn -0.100000 0.000000 0.000000
vn -0.100000 0.000000 0.000000
vn -0.100000 0.000000 0.000000
vn -0.100000 0.000000 0.000000
vn -0.100000 0.000000 0.000000
vn -0.100000 0.000000 0.000000
vn -0.100000 0.000000 0.000000
vn -0.100000 0.000000 0.000000
vn -0.100000 0.000000 0.000000
vn -0.100000 0.000000 0.000000
vn -0.100000 0.000000 0.000000
vn -0.100000 0.000000 0.000000
vn -0.100000 0.000000 0.000000
vn -0.100000 0.000000 0.000000
vn -0.100000 0.000000 0.000000
vn -0.100000 0.000000 0.000000
vn -0.100000 0.000000 0.000000
vn -0.100000 0.000000 0.000000
vn -0.100000 0.000000 0.000000
vn -0.100000 0.000000 0.000000
vn -0.100000 0.000000 0.000000
vn -0.100000 0.000000 0.000000
vn -0.100000 0.000000 0.000000
vn -0.100000 0.000000 0.000000
vn -0.100000 0.000000 0.000000
vn -0.100000 0.000000 0.000000
vn -0.100000 0.000000 0.000000
vn -0.100000 0.000000 0.000000
vn -0.100000 0.000000 0.000000
vn -0.100000 0.000000 0.000000
vn 0.044721 0.088223 0.014722
vn 0.044721 0.088223 0.014722
vn 0.044721 0.089443 0.000000
vn 0.044721 0.078663 0.042570
vn 0.044721 0.078663 0.042570
vn 0.044721 0.084596 0.029042
vn 0.044721 0.060578 0.065805
vn 0.044721 0.060578 0.065805
vn 0.044721 0.070583 0.054937
vn 0.044721 0.035929 0.081909
vn 0.044721 0.035929 0.081909
vn 0.044721 0.048921 0.074878
vn 0.044721 0.007386 0.089137
vn 0.044721 0.007386 0.089137
vn 0.044721 0.021957 0.086706
vn 0.044721 -0.021957 0.086706
vn 0.044721 -0.021957 0.086706
vn 0.044721 -0.007386 0.089137
vn 0.044721 -0.048921 0.074878
vn 0.044721 -0.048921 0.074878
vn 0.044721 -0.035929 0.081909
vn 0.044721 -0.070583 0.054937
vn 0.044721 -0.070583 0.054937
vn 0.044721 -0.060578 0.065805
vn 0.044721 -0.084596 0.029042
vn 0.044721 -0.084596 0.029042
vn 0.044721 -0.078663 0.042570
vn 0.044721 -0.089443 0.000000
vn 0.044721 -0.089443 0.000000
vn 0.044721 -0.088223 0.014722
vn 0.044721 -0.084596 -0.029042
vn 0.044721 -0.084596 -0.029042
vn 0.044721 -0.088223 -0.014722
vn 0.044721 -0.070583 -0.054937
vn 0.044721 -0.070583 -0.054937
vn 0.044721 -0.078663 -0.042570
vn 0.044721 -0.048921 -0.074878
vn 0.044721 -0.048921 -0.074878
vn 0.044721 -0.060578 -0.065805
vn 0.044721 -0.021957 -0.086706
vn 0.044721 -0.021957 -0.086706
vn 0.044721 -0.035929 -0.081909
vn 0.044721 0.007386 -0.089137
vn 0.044721 0.007386 -0.089137
vn 0.044721 -0.007386 -0.089137
vn 0.044721 0.035929 -0.081909
vn 0.044721 0.035929 -0.081909
vn 0.044721 0.021957 -0.086706
vn 0.044721 0.048921 -0.074878
vn 0.044721 0.048921 -0.074878
vn 0.044721 0.070583 -0.054937
vn 0.044721 0.070583 -0.054937
vn 0.044721 0.060578 -0.065805
vn 0.044721 0.084596 -0.029042
vn 0.044721 0.084596 -0.029042
vn 0.044721 0.078663 -0.042570
vn 0.044721 0.089443 0.000000
vn 0.044721 0.088223 -0.014722
vn 0.044721 -0.088223 -0.014722
vn 0.044721 -0.088223 0.014722
vn 0.044721 -0.078663 0.042570
vn 0.044721 -0.060578 0.065805
vn 0.044721 -0.035929 0.081909
vn 0.044721 -0.007386 0.089137
vn 0.044721 0.021957 0.086706
vn 0.044721 0.048921 0.074878
vn 0.044721 0.070583 0.054937
vn 0.044721 0.084596 0.029042
vn 0.044721 0.088223 -0.014722
vn 0.044721 0.078663 -0.042570
vn 0.044721 0.060578 -0.065805
vn 0.044721 0.021957 -0.086706
vn 0.044721 -0.007386 -0.089137
vn 0.044721 -0.035929 -0.081909
vn 0.044721 -0.060578 -0.065805
vn 0.044721 -0.078663 -0.042570
f 46/25/25 9/26/26 34/27/27
f 34/27/27 9/26/26 10/28/28
f 34/27/27 10/28/28 11/29/29
f 11/29/29 12/30/30 34/27/27
f 34/27/27 12/30/30 13/31/31
f 34/27/27 13/31/31 14/32/32
f 14/32/32 15/33/33 34/27/27
f 34/27/27 15/33/33 16/34/34
f 34/27/27 16/34/34 17/35/35
f 17/35/35 18/36/36 34/27/27
f 34/27/27 18/36/36 19/37/37
f 34/27/27 19/37/37 33/38/38
f 33/38/38 19/37/37 20/39/39
f 33/38/38 20/39/39 21/40/40
f 21/40/40 22/41/41 33/38/38
f 33/38/38 22/41/41 23/42/42
f 33/38/38 23/42/42 32/43/43
f 32/43/43 23/42/42 24/44/44
f 32/43/43 24/44/44 31/45/45
f 31/45/45 24/44/44 25/46/46
f 31/45/45 25/46/46 30/47/47
f 30/47/47 25/46/46 26/48/48
f 30/47/47 26/48/48 29/49/49
f 29/49/49 26/48/48 27/50/50
f 29/49/49 27/50/50 28/51/51
f 35/52/52 41/53/53 34/27/27
f 34/27/27 41/53/53 42/54/54
f 34/27/27 42/54/54 43/55/55
f 41/53/53 35/52/52 40/56/56
f 40/56/56 35/52/52 36/57/57
f 40/56/56 36/57/57 39/58/58
f 39/58/58 36/57/57 37/59/59
f 39/58/58 37/59/59 38/60/60
f 43/55/55 44/61/61 34/27/27
f 34/27/27 44/61/61 45/62/62
f 34/27/27 45/62/62 46/25/25
f 46/63/63 47/64/64 9/65/65
f 44/66/66 47/67/67 45/68/68
f 42/69/69 47/70/70 43/71/71
f 40/72/72 47/73/73 41/74/74
f 38/75/75 47/76/76 39/77/77
f 36/78/78 47/79/79 37/80/80
f 34/81/81 47/82/82 35/83/83
f 32/84/84 47/85/85 33/86/86
f 30/87/87 47/88/88 31/89/89
f 28/90/90 47/91/91 29/92/92
f 26/93/93 47/94/94 27/95/95
f 24/96/96 47/97/97 25/98/98
f 22/99/99 47/100/100 23/101/101
f 20/102/102 47/103/103 21/104/104
f 18/105/105 47/106/106 19/107/107
f 16/108/108 47/109/109 17/110/110
f 15/111/111 47/112/112 16/108/108
f 13/113/113 47/114/114 14/115/115
f 11/116/116 47/117/117 12/118/118
f 9/65/65 47/119/119 10/120/120
f 27/95/95 47/121/121 28/122/90
f 29/92/92 47/123/122 30/87/87
f 31/89/89 47/124/123 32/84/84
f 33/86/86 47/125/124 34/81/81
f 35/83/83 47/126/125 36/78/78
f 37/80/80 47/127/126 38/75/75
f 39/77/77 47/128/127 40/72/72
f 41/74/74 47/129/128 42/69/69
f 43/71/71 47/130/129 44/66/66
f 45/68/68 47/131/130 46/63/63
f 10/120/120 47/132/131 11/116/116
f 12/118/118 47/133/132 13/113/113
f 14/115/115 47/134/133 15/111/111
f 17/110/110 47/135/134 18/105/105
f 19/107/107 47/136/135 20/102/102
f 21/104/104 47/137/136 22/99/99
f 23/101/101 47/138/137 24/96/96
f 25/98/98 47/139/138 26/93/93

# 47 vertices
# 139 texture params
# 138 normals
# 86 facets

# 2 groups
