# WaveFront *.obj file (generated by Autodesk ATF)

mtllib ff62821a-0499-4f13-b116-8eb8201aa0c5.mtl

g Body1

v -125.000000 -220.000000 -0.000000
v -123.295163 -220.000000 -20.574324
v -118.227155 -220.000000 -40.587434
v -109.934219 -220.000000 -59.493424
v -98.642564 -220.000000 -76.776589
v -84.660196 -220.000000 -91.965489
v -68.368520 -220.000000 -104.645810
v -50.211928 -220.000000 -114.471666
v -30.685686 -220.000000 -121.175033
v -10.322418 -220.000000 -124.573062
v 10.322418 -220.000000 -124.573062
v 30.685686 -220.000000 -121.175033
v 50.211928 -220.000000 -114.471666
v 68.368520 -220.000000 -104.645810
v 84.660196 -220.000000 -91.965489
v 98.642564 -220.000000 -76.776589
v 109.934219 -220.000000 -59.493424
v 118.227155 -220.000000 -40.587434
v 123.295163 -220.000000 -20.574324
v 125.000000 -220.000000 0.000000
v 123.295163 -220.000000 20.574324
v 118.227155 -220.000000 40.587434
v 109.934219 -220.000000 59.493424
v 98.642564 -220.000000 76.776589
v 84.660196 -220.000000 91.965489
v 68.368520 -220.000000 104.645810
v 50.211928 -220.000000 114.471666
v 30.685686 -220.000000 121.175033
v 10.322418 -220.000000 124.573062
v -10.322418 -220.000000 124.573062
v -30.685686 -220.000000 121.175033
v -50.211928 -220.000000 114.471666
v -68.368520 -220.000000 104.645810
v -84.660196 -220.000000 91.965489
v -98.642564 -220.000000 76.776589
v -109.934219 -220.000000 59.493424
v -118.227155 -220.000000 40.587434
v -123.295163 -220.000000 20.574324
v -125.000000 -270.000000 -0.000000
v -123.295163 -270.000000 20.574324
v -118.227155 -270.000000 40.587434
v -109.934219 -270.000000 59.493424
v -98.642564 -270.000000 76.776589
v -84.660196 -270.000000 91.965489
v -68.368520 -270.000000 104.645810
v -50.211928 -270.000000 114.471666
v -30.685686 -270.000000 121.175033
v -10.322418 -270.000000 124.573062
v 10.322418 -270.000000 124.573062
v 30.685686 -270.000000 121.175033
v 50.211928 -270.000000 114.471666
v 68.368520 -270.000000 104.645810
v 84.660196 -270.000000 91.965489
v 98.642564 -270.000000 76.776589
v 109.934219 -270.000000 59.493424
v 118.227155 -270.000000 40.587434
v 123.295163 -270.000000 20.574324
v 125.000000 -270.000000 0.000000
v 123.295163 -270.000000 -20.574324
v 118.227155 -270.000000 -40.587434
v 109.934219 -270.000000 -59.493424
v 98.642564 -270.000000 -76.776589
v 84.660196 -270.000000 -91.965489
v 68.368520 -270.000000 -104.645810
v 50.211928 -270.000000 -114.471666
v 30.685686 -270.000000 -121.175033
v 10.322418 -270.000000 -124.573062
v -10.322418 -270.000000 -124.573062
v -30.685686 -270.000000 -121.175033
v -50.211928 -270.000000 -114.471666
v -68.368520 -270.000000 -104.645810
v -84.660196 -270.000000 -91.965489
v -98.642564 -270.000000 -76.776589
v -109.934219 -270.000000 -59.493424
v -118.227155 -270.000000 -40.587434
v -123.295163 -270.000000 -20.574324
v -75.000000 -220.000000 -75.000000
v 75.000000 -220.000000 -75.000000
v 75.000000 -220.000000 75.000000
v -75.000000 -220.000000 75.000000
v 75.000000 0.000000 75.000000
v -75.000000 0.000000 75.000000
v 75.000000 0.000000 -75.000000
v -75.000000 0.000000 -75.000000
vt -5.000000 37.203071 0.000000
vt -0.000000 37.203071 0.000000
vt -5.000000 39.269908 0.000000
vt -0.000000 39.269908 0.000000
vt -5.000000 -39.269908 0.000000
vt -0.000000 -39.269908 0.000000
vt -5.000000 -37.203071 0.000000
vt -0.000000 -37.203071 0.000000
vt -5.000000 -35.136234 0.000000
vt -0.000000 -35.136234 0.000000
vt -5.000000 -33.069396 0.000000
vt -0.000000 -33.069396 0.000000
vt -5.000000 -31.002559 0.000000
vt -0.000000 -31.002559 0.000000
vt -5.000000 -28.935722 0.000000
vt -0.000000 -28.935722 0.000000
vt -5.000000 -26.868885 0.000000
vt -0.000000 -26.868885 0.000000
vt -5.000000 -24.802047 0.000000
vt -0.000000 -24.802047 0.000000
vt -5.000000 -22.735210 0.000000
vt -0.000000 -22.735210 0.000000
vt -5.000000 -20.668373 0.000000
vt -0.000000 -20.668373 0.000000
vt -5.000000 -18.601535 0.000000
vt -0.000000 -18.601535 0.000000
vt -5.000000 -16.534698 0.000000
vt -0.000000 -16.534698 0.000000
vt -5.000000 -14.467861 0.000000
vt -0.000000 -14.467861 0.000000
vt -5.000000 -12.401024 0.000000
vt -0.000000 -12.401024 0.000000
vt -5.000000 -10.334186 0.000000
vt -0.000000 -10.334186 0.000000
vt -5.000000 -8.267349 0.000000
vt -0.000000 -8.267349 0.000000
vt -5.000000 -6.200512 0.000000
vt -0.000000 -6.200512 0.000000
vt -5.000000 -4.133675 0.000000
vt -0.000000 -4.133675 0.000000
vt -5.000000 -2.066837 0.000000
vt -0.000000 -2.066837 0.000000
vt -5.000000 0.000000 0.000000
vt -0.000000 0.000000 0.000000
vt -5.000000 2.066837 0.000000
vt -0.000000 2.066837 0.000000
vt -5.000000 4.133675 0.000000
vt -0.000000 4.133675 0.000000
vt -5.000000 6.200512 0.000000
vt -0.000000 6.200512 0.000000
vt -5.000000 8.267349 0.000000
vt -0.000000 8.267349 0.000000
vt -5.000000 10.334186 0.000000
vt -0.000000 10.334186 0.000000
vt -5.000000 12.401024 0.000000
vt -0.000000 12.401024 0.000000
vt -5.000000 14.467861 0.000000
vt -0.000000 14.467861 0.000000
vt -5.000000 16.534698 0.000000
vt -0.000000 16.534698 0.000000
vt -5.000000 18.601535 0.000000
vt -0.000000 18.601535 0.000000
vt -5.000000 20.668373 0.000000
vt -0.000000 20.668373 0.000000
vt -5.000000 22.735210 0.000000
vt -0.000000 22.735210 0.000000
vt -5.000000 24.802047 0.000000
vt -0.000000 24.802047 0.000000
vt -5.000000 26.868885 0.000000
vt -0.000000 26.868885 0.000000
vt -5.000000 28.935722 0.000000
vt -0.000000 28.935722 0.000000
vt -5.000000 31.002559 0.000000
vt -0.000000 31.002559 0.000000
vt -5.000000 33.069396 0.000000
vt -0.000000 33.069396 0.000000
vt -5.000000 35.136234 0.000000
vt -0.000000 35.136234 0.000000
vt -7.500000 -7.500000 0.000000
vt 1.032242 -12.457306 0.000000
vt 7.500000 -7.500000 0.000000
vt 3.068569 -12.117503 0.000000
vt 5.021193 -11.447167 0.000000
vt -7.500000 7.500000 0.000000
vt -12.500000 0.000000 0.000000
vt -12.329516 -2.057432 0.000000
vt -11.822716 -4.058743 0.000000
vt 7.500000 7.500000 0.000000
vt -1.032242 12.457306 0.000000
vt -3.068569 12.117503 0.000000
vt -5.021193 11.447167 0.000000
vt 12.500000 -0.000000 0.000000
vt 12.329516 2.057432 0.000000
vt 11.822716 4.058743 0.000000
vt 10.993422 5.949342 0.000000
vt 9.864256 7.677659 0.000000
vt 8.466020 9.196549 0.000000
vt 6.836852 10.464581 0.000000
vt 5.021193 11.447167 0.000000
vt 3.068569 12.117503 0.000000
vt 1.032242 12.457306 0.000000
vt -6.836852 10.464581 0.000000
vt -8.466020 9.196549 0.000000
vt -9.864256 7.677659 0.000000
vt -10.993422 5.949342 0.000000
vt -11.822716 4.058743 0.000000
vt -12.329516 2.057432 0.000000
vt -10.993422 -5.949342 0.000000
vt -9.864256 -7.677659 0.000000
vt -8.466020 -9.196549 0.000000
vt -6.836852 -10.464581 0.000000
vt -5.021193 -11.447167 0.000000
vt -3.068569 -12.117503 0.000000
vt -1.032242 -12.457306 0.000000
vt 6.836852 -10.464581 0.000000
vt 8.466020 -9.196549 0.000000
vt 9.864256 -7.677659 0.000000
vt 10.993422 -5.949342 0.000000
vt 11.822716 -4.058743 0.000000
vt 12.329516 -2.057432 0.000000
vt 15.000000 22.000000 0.000000
vt 0.000000 22.000000 0.000000
vt 15.000000 0.000000 0.000000
vt -0.000000 0.000000 0.000000
vt 15.000000 22.000000 0.000000
vt 0.000000 22.000000 0.000000
vt 15.000000 0.000000 0.000000
vt 0.000000 0.000000 0.000000
vt 15.000000 22.000000 0.000000
vt 0.000000 22.000000 0.000000
vt 15.000000 0.000000 0.000000
vt 0.000000 0.000000 0.000000
vt 15.000000 22.000000 0.000000
vt 0.000000 22.000000 0.000000
vt 15.000000 0.000000 0.000000
vt -0.000000 0.000000 0.000000
vt 7.500000 7.500000 0.000000
vt -7.500000 7.500000 0.000000
vt 7.500000 -7.500000 0.000000
vt -7.500000 -7.500000 0.000000
vt 0.000000 -12.500000 0.000000
vt 2.057432 -12.329516 0.000000
vt -2.057432 -12.329516 0.000000
vt -4.058743 -11.822716 0.000000
vt 4.058743 -11.822716 0.000000
vt -5.949342 -10.993422 0.000000
vt 5.949342 -10.993422 0.000000
vt -7.677659 -9.864256 0.000000
vt 7.677659 -9.864256 0.000000
vt -9.196549 -8.466020 0.000000
vt 9.196549 -8.466020 0.000000
vt -10.464581 -6.836852 0.000000
vt -11.447167 -5.021193 0.000000
vt -12.117503 -3.068569 0.000000
vt -12.457306 -1.032242 0.000000
vt 10.464581 -6.836852 0.000000
vt -12.457306 1.032242 0.000000
vt -12.117503 3.068569 0.000000
vt -11.447167 5.021193 0.000000
vt -10.464581 6.836852 0.000000
vt -9.196549 8.466020 0.000000
vt -7.677659 9.864256 0.000000
vt -5.949342 10.993422 0.000000
vt -4.058743 11.822716 0.000000
vt -2.057432 12.329516 0.000000
vt 0.000000 12.500000 0.000000
vt 2.057432 12.329516 0.000000
vt 4.058743 11.822716 0.000000
vt 5.949342 10.993422 0.000000
vt 7.677659 9.864256 0.000000
vt 9.196549 8.466020 0.000000
vt 10.464581 6.836852 0.000000
vt 11.447167 -5.021193 0.000000
vt 11.447167 5.021193 0.000000
vt 12.117503 -3.068569 0.000000
vt 12.117503 3.068569 0.000000
vt 12.457306 -1.032242 0.000000
vt 12.457306 1.032242 0.000000
vn -0.098636 0.000000 -0.016459
vn -0.098636 0.000000 -0.016459
vn -0.100000 0.000000 -0.000000
vn -0.100000 0.000000 -0.000000
vn -0.098636 0.000000 0.016459
vn -0.098636 0.000000 0.016459
vn -0.094582 0.000000 0.032470
vn -0.094582 0.000000 0.032470
vn -0.087947 0.000000 0.047595
vn -0.087947 0.000000 0.047595
vn -0.078914 0.000000 0.061421
vn -0.078914 0.000000 0.061421
vn -0.067728 0.000000 0.073572
vn -0.067728 0.000000 0.073572
vn -0.054695 0.000000 0.083717
vn -0.054695 0.000000 0.083717
vn -0.040170 0.000000 0.091577
vn -0.040170 0.000000 0.091577
vn -0.024549 0.000000 0.096940
vn -0.024549 0.000000 0.096940
vn -0.008258 0.000000 0.099658
vn -0.008258 0.000000 0.099658
vn 0.008258 -0.000000 0.099658
vn 0.008258 -0.000000 0.099658
vn 0.024549 -0.000000 0.096940
vn 0.024549 -0.000000 0.096940
vn 0.040170 -0.000000 0.091577
vn 0.040170 -0.000000 0.091577
vn 0.054695 -0.000000 0.083717
vn 0.054695 -0.000000 0.083717
vn 0.067728 -0.000000 0.073572
vn 0.067728 -0.000000 0.073572
vn 0.078914 -0.000000 0.061421
vn 0.078914 -0.000000 0.061421
vn 0.087947 -0.000000 0.047595
vn 0.087947 -0.000000 0.047595
vn 0.094582 -0.000000 0.032470
vn 0.094582 -0.000000 0.032470
vn 0.098636 -0.000000 0.016459
vn 0.098636 -0.000000 0.016459
vn 0.100000 0.000000 0.000000
vn 0.100000 0.000000 0.000000
vn 0.098636 0.000000 -0.016459
vn 0.098636 0.000000 -0.016459
vn 0.094582 0.000000 -0.032470
vn 0.094582 0.000000 -0.032470
vn 0.087947 0.000000 -0.047595
vn 0.087947 0.000000 -0.047595
vn 0.078914 0.000000 -0.061421
vn 0.078914 0.000000 -0.061421
vn 0.067728 0.000000 -0.073572
vn 0.067728 0.000000 -0.073572
vn 0.054695 0.000000 -0.083717
vn 0.054695 0.000000 -0.083717
vn 0.040170 0.000000 -0.091577
vn 0.040170 0.000000 -0.091577
vn 0.024549 0.000000 -0.096940
vn 0.024549 0.000000 -0.096940
vn 0.008258 0.000000 -0.099658
vn 0.008258 0.000000 -0.099658
vn -0.008258 0.000000 -0.099658
vn -0.008258 0.000000 -0.099658
vn -0.024549 0.000000 -0.096940
vn -0.024549 0.000000 -0.096940
vn -0.040170 0.000000 -0.091577
vn -0.040170 0.000000 -0.091577
vn -0.054695 0.000000 -0.083717
vn -0.054695 0.000000 -0.083717
vn -0.067728 0.000000 -0.073572
vn -0.067728 0.000000 -0.073572
vn -0.078914 0.000000 -0.061421
vn -0.078914 0.000000 -0.061421
vn -0.087947 0.000000 -0.047595
vn -0.087947 0.000000 -0.047595
vn -0.094582 0.000000 -0.032470
vn -0.094582 0.000000 -0.032470
vn -0.000000 0.100000 -0.000000
vn -0.000000 0.100000 -0.000000
vn -0.000000 0.100000 -0.000000
vn -0.000000 0.100000 -0.000000
vn -0.000000 0.100000 -0.000000
vn -0.000000 0.100000 -0.000000
vn -0.000000 0.100000 -0.000000
vn -0.000000 0.100000 -0.000000
vn -0.000000 0.100000 -0.000000
vn -0.000000 0.100000 -0.000000
vn -0.000000 0.100000 -0.000000
vn -0.000000 0.100000 -0.000000
vn -0.000000 0.100000 -0.000000
vn -0.000000 0.100000 -0.000000
vn -0.000000 0.100000 -0.000000
vn -0.000000 0.100000 -0.000000
vn -0.000000 0.100000 -0.000000
vn -0.000000 0.100000 -0.000000
vn -0.000000 0.100000 -0.000000
vn -0.000000 0.100000 -0.000000
vn -0.000000 0.100000 -0.000000
vn -0.000000 0.100000 -0.000000
vn -0.000000 0.100000 -0.000000
vn -0.000000 0.100000 -0.000000
vn -0.000000 0.100000 -0.000000
vn -0.000000 0.100000 -0.000000
vn -0.000000 0.100000 -0.000000
vn -0.000000 0.100000 -0.000000
vn -0.000000 0.100000 -0.000000
vn -0.000000 0.100000 -0.000000
vn -0.000000 0.100000 -0.000000
vn -0.000000 0.100000 -0.000000
vn -0.000000 0.100000 -0.000000
vn -0.000000 0.100000 -0.000000
vn -0.000000 0.100000 -0.000000
vn -0.000000 0.100000 -0.000000
vn -0.000000 0.100000 -0.000000
vn -0.000000 0.100000 -0.000000
vn -0.000000 0.100000 -0.000000
vn -0.000000 0.100000 -0.000000
vn -0.000000 0.100000 -0.000000
vn -0.000000 0.100000 -0.000000
vn 0.000000 0.000000 0.100000
vn 0.000000 0.000000 0.100000
vn 0.000000 0.000000 0.100000
vn 0.000000 0.000000 0.100000
vn 0.100000 0.000000 0.000000
vn 0.100000 0.000000 0.000000
vn 0.100000 0.000000 0.000000
vn 0.100000 0.000000 0.000000
vn 0.000000 0.000000 -0.100000
vn 0.000000 0.000000 -0.100000
vn 0.000000 0.000000 -0.100000
vn 0.000000 0.000000 -0.100000
vn -0.100000 0.000000 0.000000
vn -0.100000 0.000000 0.000000
vn -0.100000 0.000000 0.000000
vn -0.100000 0.000000 0.000000
vn 0.000000 0.100000 0.000000
vn 0.000000 0.100000 0.000000
vn 0.000000 0.100000 0.000000
vn 0.000000 0.100000 0.000000
vn 0.000000 -0.100000 0.000000
vn 0.000000 -0.100000 0.000000
vn 0.000000 -0.100000 0.000000
vn 0.000000 -0.100000 0.000000
vn 0.000000 -0.100000 0.000000
vn 0.000000 -0.100000 0.000000
vn 0.000000 -0.100000 0.000000
vn 0.000000 -0.100000 0.000000
vn 0.000000 -0.100000 0.000000
vn 0.000000 -0.100000 0.000000
vn 0.000000 -0.100000 0.000000
vn 0.000000 -0.100000 0.000000
vn 0.000000 -0.100000 0.000000
vn 0.000000 -0.100000 0.000000
vn 0.000000 -0.100000 0.000000
vn 0.000000 -0.100000 0.000000
vn 0.000000 -0.100000 0.000000
vn 0.000000 -0.100000 0.000000
vn 0.000000 -0.100000 0.000000
vn 0.000000 -0.100000 0.000000
vn 0.000000 -0.100000 0.000000
vn 0.000000 -0.100000 0.000000
vn 0.000000 -0.100000 0.000000
vn 0.000000 -0.100000 0.000000
vn 0.000000 -0.100000 0.000000
vn 0.000000 -0.100000 0.000000
vn 0.000000 -0.100000 0.000000
vn 0.000000 -0.100000 0.000000
vn 0.000000 -0.100000 0.000000
vn 0.000000 -0.100000 0.000000
vn 0.000000 -0.100000 0.000000
vn 0.000000 -0.100000 0.000000
vn 0.000000 -0.100000 0.000000
vn 0.000000 -0.100000 0.000000
vn 0.000000 -0.100000 0.000000
vn 0.000000 -0.100000 0.000000
vn 0.000000 -0.100000 0.000000
vn 0.000000 -0.100000 0.000000
usemtl Steel_-_Satin
f 2/1/1 76/2/2 1/3/3
f 1/3/3 76/2/2 39/4/4
f 1/5/3 39/6/4 38/7/5
f 38/7/5 39/6/4 40/8/6
f 38/7/5 40/8/6 37/9/7
f 37/9/7 40/8/6 41/10/8
f 37/9/7 41/10/8 36/11/9
f 36/11/9 41/10/8 42/12/10
f 36/11/9 42/12/10 35/13/11
f 35/13/11 42/12/10 43/14/12
f 35/13/11 43/14/12 34/15/13
f 34/15/13 43/14/12 44/16/14
f 34/15/13 44/16/14 33/17/15
f 33/17/15 44/16/14 45/18/16
f 33/17/15 45/18/16 32/19/17
f 32/19/17 45/18/16 46/20/18
f 32/19/17 46/20/18 31/21/19
f 31/21/19 46/20/18 47/22/20
f 31/21/19 47/22/20 30/23/21
f 30/23/21 47/22/20 48/24/22
f 30/23/21 48/24/22 29/25/23
f 29/25/23 48/24/22 49/26/24
f 29/25/23 49/26/24 28/27/25
f 28/27/25 49/26/24 50/28/26
f 28/27/25 50/28/26 27/29/27
f 27/29/27 50/28/26 51/30/28
f 27/29/27 51/30/28 26/31/29
f 26/31/29 51/30/28 52/32/30
f 26/31/29 52/32/30 25/33/31
f 25/33/31 52/32/30 53/34/32
f 25/33/31 53/34/32 24/35/33
f 24/35/33 53/34/32 54/36/34
f 24/35/33 54/36/34 23/37/35
f 23/37/35 54/36/34 55/38/36
f 23/37/35 55/38/36 22/39/37
f 22/39/37 55/38/36 56/40/38
f 22/39/37 56/40/38 21/41/39
f 21/41/39 56/40/38 57/42/40
f 21/41/39 57/42/40 20/43/41
f 20/43/41 57/42/40 58/44/42
f 20/43/41 58/44/42 19/45/43
f 19/45/43 58/44/42 59/46/44
f 19/45/43 59/46/44 18/47/45
f 18/47/45 59/46/44 60/48/46
f 18/47/45 60/48/46 17/49/47
f 17/49/47 60/48/46 61/50/48
f 17/49/47 61/50/48 16/51/49
f 16/51/49 61/50/48 62/52/50
f 16/51/49 62/52/50 15/53/51
f 15/53/51 62/52/50 63/54/52
f 15/53/51 63/54/52 14/55/53
f 14/55/53 63/54/52 64/56/54
f 14/55/53 64/56/54 13/57/55
f 13/57/55 64/56/54 65/58/56
f 13/57/55 65/58/56 12/59/57
f 12/59/57 65/58/56 66/60/58
f 12/59/57 66/60/58 11/61/59
f 11/61/59 66/60/58 67/62/60
f 11/61/59 67/62/60 10/63/61
f 10/63/61 67/62/60 68/64/62
f 10/63/61 68/64/62 9/65/63
f 9/65/63 68/64/62 69/66/64
f 9/65/63 69/66/64 8/67/65
f 8/67/65 69/66/64 70/68/66
f 8/67/65 70/68/66 7/69/67
f 7/69/67 70/68/66 71/70/68
f 7/69/67 71/70/68 6/71/69
f 6/71/69 71/70/68 72/72/70
f 6/71/69 72/72/70 5/73/71
f 5/73/71 72/72/70 73/74/72
f 5/73/71 73/74/72 4/75/73
f 4/75/73 73/74/72 74/76/74
f 4/75/73 74/76/74 3/77/75
f 3/77/75 74/76/74 75/78/76
f 3/77/75 75/78/76 2/1/1
f 2/1/1 75/78/76 76/2/2
f 78/79/77 10/80/78 77/81/79
f 77/81/79 10/80/78 9/82/80
f 77/81/79 9/82/80 8/83/81
f 79/84/82 20/85/83 78/79/77
f 78/79/77 20/85/83 19/86/84
f 78/79/77 19/86/84 18/87/85
f 80/88/86 29/89/87 79/84/82
f 79/84/82 29/89/87 28/90/88
f 79/84/82 28/90/88 27/91/89
f 77/81/79 1/92/90 80/88/86
f 80/88/86 1/92/90 38/93/91
f 80/88/86 38/93/91 37/94/92
f 37/94/92 36/95/93 80/88/86
f 80/88/86 36/95/93 35/96/94
f 80/88/86 35/96/94 34/97/95
f 34/97/95 33/98/96 80/88/86
f 80/88/86 33/98/96 32/99/97
f 80/88/86 32/99/97 31/100/98
f 31/100/98 30/101/99 80/88/86
f 80/88/86 30/101/99 29/89/87
f 27/91/89 26/102/100 79/84/82
f 79/84/82 26/102/100 25/103/101
f 79/84/82 25/103/101 24/104/102
f 24/104/102 23/105/103 79/84/82
f 79/84/82 23/105/103 22/106/104
f 79/84/82 22/106/104 21/107/105
f 21/107/105 20/85/83 79/84/82
f 18/87/85 17/108/106 78/79/77
f 78/79/77 17/108/106 16/109/107
f 78/79/77 16/109/107 15/110/108
f 15/110/108 14/111/109 78/79/77
f 78/79/77 14/111/109 13/112/110
f 78/79/77 13/112/110 12/113/111
f 12/113/111 11/114/112 78/79/77
f 78/79/77 11/114/112 10/80/78
f 8/83/81 7/115/113 77/81/79
f 77/81/79 7/115/113 6/116/114
f 77/81/79 6/116/114 5/117/115
f 5/117/115 4/118/116 77/81/79
f 77/81/79 4/118/116 3/119/117
f 77/81/79 3/119/117 2/120/118
f 2/120/118 1/92/90 77/81/79
f 80/121/119 79/122/120 82/123/121
f 82/123/121 79/122/120 81/124/122
f 79/125/123 78/126/124 81/127/125
f 81/127/125 78/126/124 83/128/126
f 78/129/127 77/130/128 83/131/129
f 83/131/129 77/130/128 84/132/130
f 77/133/131 80/134/132 84/135/133
f 84/135/133 80/134/132 82/136/134
f 83/137/135 84/138/136 81/139/137
f 81/139/137 84/138/136 82/140/138
f 39/141/139 76/142/140 40/143/141
f 40/143/141 76/142/140 41/144/142
f 41/144/142 76/142/140 75/145/143
f 41/144/142 75/145/143 42/146/144
f 42/146/144 75/145/143 74/147/145
f 42/146/144 74/147/145 43/148/146
f 43/148/146 74/147/145 73/149/147
f 43/148/146 73/149/147 44/150/148
f 44/150/148 73/149/147 72/151/149
f 44/150/148 72/151/149 45/152/150
f 45/152/150 72/151/149 46/153/151
f 46/153/151 72/151/149 47/154/152
f 47/154/152 72/151/149 48/155/153
f 48/155/153 72/151/149 71/156/154
f 48/155/153 71/156/154 49/157/155
f 49/157/155 71/156/154 50/158/156
f 50/158/156 71/156/154 51/159/157
f 51/159/157 71/156/154 52/160/158
f 52/160/158 71/156/154 53/161/159
f 53/161/159 71/156/154 54/162/160
f 54/162/160 71/156/154 55/163/161
f 55/163/161 71/156/154 56/164/162
f 56/164/162 71/156/154 57/165/163
f 57/165/163 71/156/154 58/166/164
f 58/166/164 71/156/154 59/167/165
f 59/167/165 71/156/154 60/168/166
f 60/168/166 71/156/154 61/169/167
f 61/169/167 71/156/154 62/170/168
f 62/170/168 71/156/154 63/171/169
f 63/171/169 71/156/154 64/172/170
f 64/172/170 71/156/154 70/173/171
f 64/172/170 70/173/171 65/174/172
f 65/174/172 70/173/171 69/175/173
f 65/174/172 69/175/173 66/176/174
f 66/176/174 69/175/173 68/177/175
f 66/176/174 68/177/175 67/178/176

# 84 vertices
# 178 texture params
# 176 normals
# 164 facets

# 1 groups
